{"title":"Forrest Gump 1994 720p BrRip x264 (6Ch) [Dual-Audio] Eng-Hin Nim","uid":7720203,"size":1217162530,"categoryP":"video","categoryS":"hd___movies","magnet":"?xt=urn:btih:0bb01fe5173d1fecb31c2d1815fe8e219a55aa7e&amp;dn=Forrest+Gump+1994+720p+BrRip+x264+%286Ch%29+%5BDual-Audio%5D+Eng-Hin+Nim&amp;tr=udp%3A%2F%2Ftracker.openbittorrent.com%3A80&amp;tr=udp%3A%2F%2Fopen.demonii.com%3A1337&amp;tr=udp%3A%2F%2Ftracker.coppersurfer.tk%3A6969&amp;tr=udp%3A%2F%2Fexodus.desync.com%3A6969","seeders":2,"leechers":14,"uploader":"MFATeam","files":8,"time":1350001839,"description":"::General::\nComplete name: Forrest Gump 1994 720p BrRip x264 (6Ch) [Dual-Audio] Eng-Hin NimitMak SilverRG\nDirector: Robert Zemeckis\nFormat: MPEG-4\nFile size: 1.11 GiB\nDuration: 2h 22mn\nOverall Bitrate: 1121 Kbps\nLanguage: Dual Audio [English-Hindi]\nSub Title: (Embedded + .srt) Can Be Turned off [English]\nEncoded date: 2012-10-06\nWriting application: MeGui\nWriting library: x264 core 100 r1659 57b2e56\nEncoder: NimitMak\nSource: BrRip YIFY (Thanks)\n\n\n\n::IMDB INFO::\nIMDB Link:http://www.imdb.com/title/tt0109830/\nIMDB Rating:8.7/10\nRelease Date:6 July 1994 (USA)\nGenre: Drama | Romance \nYouTube\n\n\n\n::Video::\nID: 1\nFormat: AVC\nFormat/Info: Advanced Video Codec\nFormat profile: &lt;a class=&quot;__cf_email__&quot; href=&quot;/cdn-cgi/l/email-protection&quot; data-cfemail=&quot;165e7f717e565a223826&quot;&gt;[email&amp;#160;protected]&lt;/a&gt;&lt;script cf-hash='f9e31' type=&quot;text/javascript&quot;&gt;\n/* &lt;![CDATA[ */!function(){try{var t=&quot;currentScript&quot;in document?document.currentScript:function(){for(var t=document.getElementsByTagName(&quot;script&quot;),e=t.length;e--;)if(t[e].getAttribute(&quot;cf-hash&quot;))return t[e]}();if(t&amp;&amp;t.previousSibling){var e,r,n,i,c=t.previousSibling,a=c.getAttribute(&quot;data-cfemail&quot;);if(a){for(e=&quot;&quot;,r=parseInt(a.substr(0,2),16),n=2;a.length-n;n+=2)i=parseInt(a.substr(n,2),16)^r,e+=String.fromCharCode(i);e=document.createTextNode(e),c.parentNode.replaceChild(e,c)}}}catch(u){}}();/* ]]&gt; */&lt;/script&gt;\nFormat settings, CABAC: Yes\nFormat settings, ReFrames: 8 frames\nCodec ID: V_MPEG4/ISO/AVC\nNominal Bitrate: 742 Kbps/10.5 Mbps(Max)\nWidth: 1280 pixels\nHeight: 544 pixels\nDisplay aspect ratio: 2.35:1\nFrame rate: 23.976 fps\nColor space: YUV\nChroma subsampling: 4:2:0\nBit depth: 8 bits\nScan type: Progressive\nWriting library: x264 core 100 r1659 57b2e56\n\n\n\n::Audio #1::\nID: 2\nFormat: AC-3\nFormat/Info: Audio Coding 3\nMode extension: CM (complete main)\nCodec ID: ac-3\nDuration: 2h 22mn\nBit rate mode: Constant\nBit rate: 192 Kbps\nChannel(s): 6 channels\nChannel positions: Front: L C R, Side: L R, LFE\nSampling rate: 48.0 KHz\nBit depth: 16 bits\nCompression mode: Lossy\nStream size: 195 MiB (17%)\nTitle: English - NimitMak SilverRG\n\n::Audio #2::\nID: 3\nFormat: AC-3\nFormat/Info: Audio Coding 3\nMode extension: CM (complete main)\nCodec ID: ac-3\nDuration: 2h 15mn\nBit rate mode: Constant\nBit rate: 192 Kbps\nChannel(s): 6 channels\nChannel positions: Front: L C R, Side: L R, LFE\nSampling rate: 44.1 KHz\nBit depth: 16 bits\nCompression mode : Lossy\nStream size: 186 MiB (16%)\nTitle: Hindi - NimitMak SilverRG\n\n::Text #1::\nID: 4\nFormat: Timed text\nCodec ID: tx3g\nDuration: 2h 14mn\nBit rate mode: Variable\nBit rate: 66 bps\nStream size: 64.9 KiB (0%)\nTitle: English - NimitMak SilverRG\n\nScreens :\n &lt;a href=&quot;\nhttp://postimage.org/image/qesvbucsv/&quot; rel=&quot;nofollow&quot; target=&quot;_NEW&quot;&gt;\nhttp://postimage.org/image/qesvbucsv/&lt;/a&gt; &lt;a href=&quot;\nhttp://postimage.org/image/veuwxj7tb/&quot; rel=&quot;nofollow&quot; target=&quot;_NEW&quot;&gt;\nhttp://postimage.org/image/veuwxj7tb/&lt;/a&gt; &lt;a href=&quot;\nhttp://postimage.org/image/4elpmp8wf/&quot; rel=&quot;nofollow&quot; target=&quot;_NEW&quot;&gt;\nhttp://postimage.org/image/4elpmp8wf/&lt;/a&gt; &lt;a href=&quot;\nhttp://postimage.org/image/c4x35l0lr/&quot; rel=&quot;nofollow&quot; target=&quot;_NEW&quot;&gt;\nhttp://postimage.org/image/c4x35l0lr/&lt;/a&gt; &lt;a href=&quot;\nhttp://postimage.org/image/ara1o0qq7/&quot; rel=&quot;nofollow&quot; target=&quot;_NEW&quot;&gt;\nhttp://postimage.org/image/ara1o0qq7/&lt;/a&gt; &lt;a href=&quot;\nhttp://postimage.org/image/hbctud4r3/&quot; rel=&quot;nofollow&quot; target=&quot;_NEW&quot;&gt;\nhttp://postimage.org/image/hbctud4r3/&lt;/a&gt; &lt;a href=&quot;\nhttp://postimage.org/image/4y4l174gf/&quot; rel=&quot;nofollow&quot; target=&quot;_NEW&quot;&gt;\nhttp://postimage.org/image/4y4l174gf/&lt;/a&gt; &lt;a href=&quot;\nhttp://postimage.org/image/dlmdsy7nz/&quot; rel=&quot;nofollow&quot; target=&quot;_NEW&quot;&gt;\nhttp://postimage.org/image/dlmdsy7nz/&lt;/a&gt; &lt;a href=&quot;\nhttp://postimage.org/image/qsbtsh3db/&quot; rel=&quot;nofollow&quot; target=&quot;_NEW&quot;&gt;\nhttp://postimage.org/image/qsbtsh3db/&lt;/a&gt; &lt;a href=&quot;\nhttp://postimage.org/image/5wpjh8767/&quot; rel=&quot;nofollow&quot; target=&quot;_NEW&quot;&gt;\nhttp://postimage.org/image/5wpjh8767/&lt;/a&gt; &lt;a href=&quot;\nhttp://postimage.org/image/y3bxic95b/&quot; rel=&quot;nofollow&quot; target=&quot;_NEW&quot;&gt;\nhttp://postimage.org/image/y3bxic95b/&lt;/a&gt; &lt;a href=&quot;\nhttp://postimage.org/image/jf11798pb/&quot; rel=&quot;nofollow&quot; target=&quot;_NEW&quot;&gt;\nhttp://postimage.org/image/jf11798pb/&lt;/a&gt; &lt;a href=&quot;\nhttp://www.shotpix.com/images/77283769572083667440.jpg&quot; rel=&quot;nofollow&quot; target=&quot;_NEW&quot;&gt;\nhttp://www.shotpix.com/images/77283769572083667440.jpg&lt;/a&gt;","torrent":{"xt":"urn:btih:0bb01fe5173d1fecb31c2d1815fe8e219a55aa7e","amp;dn":"Forrest+Gump+1994+720p+BrRip+x264+%286Ch%29+%5BDual-Audio%5D+Eng-Hin+Nim","amp;tr":["udp%3A%2F%2Ftracker.openbittorrent.com%3A80","udp%3A%2F%2Fopen.demonii.com%3A1337","udp%3A%2F%2Ftracker.coppersurfer.tk%3A6969","udp%3A%2F%2Fexodus.desync.com%3A6969"],"infoHash":"0bb01fe5173d1fecb31c2d1815fe8e219a55aa7e","infoHashBuffer":{"type":"Buffer","data":[11,176,31,229,23,61,31,236,179,28,45,24,21,254,142,33,154,85,170,126]},"announce":[],"urlList":[]}}